<svg width="54" height="54" viewBox="0 0 54 54" fill="none" xmlns="http://www.w3.org/2000/svg">
<path d="M27 54C12.0879 54 0 41.9121 0 27C0 12.0879 12.0879 0 27 0C41.9121 0 54 12.0879 54 27C54 41.9121 41.9121 54 27 54ZM13.5351 43.8912C17.3571 46.9468 22.1067 48.6078 27 48.6C32.319 48.6 37.1871 46.6776 40.9509 43.4916C39.1925 41.6873 37.09 40.254 34.768 39.2764C32.446 38.2988 29.9514 37.7967 27.432 37.8C24.82 37.797 22.2359 38.3369 19.8436 39.3855C17.4513 40.4341 15.303 41.9684 13.5351 43.8912ZM9.7632 40.014C12.0324 37.6058 14.7708 35.6878 17.8096 34.3783C20.8483 33.0688 24.1231 32.3956 27.432 32.4C30.6225 32.3959 33.7823 33.022 36.7301 34.2424C39.6779 35.4629 42.3556 37.2536 44.6094 39.5118C46.9208 36.2586 48.2858 32.4287 48.5529 28.447C48.8201 24.4652 47.9789 20.4873 46.1227 16.9545C44.2666 13.4218 41.468 10.4723 38.0375 8.4333C34.607 6.39432 30.6787 5.34556 26.6884 5.40338C22.6981 5.4612 18.8019 6.62333 15.4319 8.76084C12.0619 10.8984 9.34999 13.9277 7.59697 17.5127C5.84395 21.0978 5.11837 25.0984 5.50075 29.0708C5.88313 33.0431 7.35851 36.8319 9.7632 40.0167V40.014ZM27 29.7C24.1357 29.7 21.3886 28.5621 19.3632 26.5368C17.3379 24.5114 16.2 21.7643 16.2 18.9C16.2 16.0357 17.3379 13.2886 19.3632 11.2632C21.3886 9.23785 24.1357 8.1 27 8.1C29.8643 8.1 32.6114 9.23785 34.6368 11.2632C36.6621 13.2886 37.8 16.0357 37.8 18.9C37.8 21.7643 36.6621 24.5114 34.6368 26.5368C32.6114 28.5621 29.8643 29.7 27 29.7ZM27 24.3C28.4322 24.3 29.8057 23.7311 30.8184 22.7184C31.8311 21.7057 32.4 20.3322 32.4 18.9C32.4 17.4678 31.8311 16.0943 30.8184 15.0816C29.8057 14.0689 28.4322 13.5 27 13.5C25.5678 13.5 24.1943 14.0689 23.1816 15.0816C22.1689 16.0943 21.6 17.4678 21.6 18.9C21.6 20.3322 22.1689 21.7057 23.1816 22.7184C24.1943 23.7311 25.5678 24.3 27 24.3Z" fill="white"/>
</svg>
